<svg width="163" height="155" viewBox="0 0 163 155" fill="none" xmlns="http://www.w3.org/2000/svg">
<path d="M57.0411 100.847C84.109 100.847 106.052 79.9809 106.052 54.2415C106.052 28.5021 84.109 7.63617 57.0411 7.63617C29.9732 7.63617 8.03027 28.5021 8.03027 54.2415C8.03027 79.9809 29.9732 100.847 57.0411 100.847Z" fill="#EE91BC"/>
<path d="M57.0415 89.0499C77.2578 89.0499 93.6464 73.4657 93.6464 54.2415C93.6464 35.0174 77.2578 19.4331 57.0415 19.4331C36.8251 19.4331 20.4365 35.0174 20.4365 54.2415C20.4365 73.4657 36.8251 89.0499 57.0415 89.0499Z" fill="#A8DF65"/>
<path d="M108.668 97.7717L102.792 103.36C100.041 105.975 100.041 110.216 102.792 112.832L137.038 145.398C139.789 148.013 144.249 148.013 147 145.398L152.876 139.81C155.627 137.194 155.627 132.953 152.876 130.337L118.63 97.7717C115.879 95.156 111.419 95.156 108.668 97.7717Z" fill="#EE91BC"/>
<path d="M110.649 96.4512L110.637 96.4633C109.913 96.7894 109.254 97.2319 108.688 97.7711L102.818 103.354C102.251 103.891 101.785 104.518 101.442 105.206L101.43 105.218L86.7852 91.2926C90.2524 88.7705 93.3526 85.8224 96.0048 82.5254L110.649 96.4512Z" fill="#EFB960"/>
<path d="M57.0415 91.1703C66.0275 91.1713 74.7359 88.2093 81.6827 82.7891C88.6296 77.3689 93.3851 69.8258 95.1389 61.4451C96.8927 53.0645 95.5363 44.3648 91.3009 36.8285C87.0655 29.2922 80.213 23.3857 71.9112 20.1152C63.6094 16.8448 54.3719 16.4129 45.7727 18.8931C37.1735 21.3732 29.7448 26.6121 24.7522 33.7169C19.7597 40.8217 17.5124 49.3528 18.3931 57.8566C19.2739 66.3605 23.2282 74.3108 29.5824 80.353C33.1797 83.7931 37.459 86.5206 42.1724 88.3774C46.8858 90.2342 51.9397 91.1835 57.0415 91.1703ZM32.7341 31.1272C38.3574 25.7789 45.7569 22.4503 53.6718 21.7084C61.5866 20.9665 69.5272 22.8572 76.1404 27.0584C82.7536 31.2597 87.6303 37.5114 89.9395 44.7485C92.2488 51.9856 91.8477 59.7602 88.8046 66.7476C85.7616 73.7349 80.2648 79.5028 73.2509 83.0683C66.237 86.6339 58.14 87.7765 50.3395 86.3015C42.539 84.8264 35.5176 80.8251 30.4718 74.9791C25.426 69.1332 22.668 61.8044 22.6676 54.2415C22.655 49.9472 23.5383 45.6931 25.2662 41.7255C26.9941 37.758 29.5324 34.1557 32.7341 31.1272Z" fill="#142850"/>
<path d="M63.3221 32.3502C68.0146 33.5764 72.2022 36.1344 75.326 39.6828C78.4498 43.2312 80.3612 47.6012 80.8051 52.2096C80.8541 52.7367 81.1088 53.2273 81.5191 53.5847C81.9295 53.9422 82.4657 54.1406 83.0221 54.141C83.0884 54.141 83.1546 54.1386 83.2208 54.1337C83.5126 54.1091 83.7963 54.03 84.056 53.901C84.3156 53.772 84.5459 53.5957 84.7338 53.382C84.9217 53.1683 85.0635 52.9216 85.1511 52.6558C85.2387 52.39 85.2704 52.1104 85.2443 51.833C84.7177 46.3615 82.4485 41.173 78.7397 36.9601C75.0308 32.7471 70.0587 29.7102 64.4873 28.2548C64.2038 28.1785 63.9073 28.1563 63.6148 28.1896C63.3223 28.2229 63.0396 28.3111 62.7832 28.449C62.5267 28.5868 62.3016 28.7717 62.1207 28.9928C61.9399 29.2139 61.8069 29.467 61.7296 29.7373C61.6522 30.0076 61.632 30.2898 61.6701 30.5676C61.7081 30.8453 61.8037 31.1132 61.9513 31.3556C62.099 31.598 62.2957 31.8102 62.5301 31.9799C62.7645 32.1496 63.0319 32.2734 63.317 32.3441L63.3221 32.3502Z" fill="#142850"/>
<path d="M47.334 33.3311C47.6184 33.3312 47.9003 33.2794 48.1642 33.1785C50.2676 32.3758 52.4814 31.8648 54.7377 31.6612C55.3262 31.6075 55.8682 31.3338 56.2445 30.9002C56.6207 30.4665 56.8004 29.9085 56.744 29.3489C56.6876 28.7893 56.3998 28.2739 55.9437 27.9161C55.4877 27.5583 54.9009 27.3874 54.3124 27.4411C51.6321 27.6842 49.0024 28.2918 46.5037 29.2454C46.0233 29.4288 45.625 29.7655 45.3773 30.1977C45.1295 30.6299 45.0477 31.1307 45.146 31.614C45.2442 32.0973 45.5163 32.533 45.9155 32.8464C46.3148 33.1597 46.8163 33.3311 47.334 33.3311Z" fill="#142850"/>
<path d="M154.482 128.844L145.275 120.09C144.857 119.692 144.29 119.469 143.699 119.469C143.108 119.469 142.541 119.692 142.123 120.09C141.705 120.487 141.471 121.026 141.471 121.588C141.471 122.15 141.705 122.69 142.123 123.087L151.329 131.841C152.231 132.701 152.737 133.865 152.737 135.079C152.737 136.294 152.231 137.458 151.329 138.318L145.452 143.907C144.548 144.764 143.323 145.245 142.046 145.245C140.77 145.245 139.545 144.764 138.641 143.907L104.385 111.332C103.938 110.907 103.583 110.402 103.341 109.847C103.099 109.291 102.974 108.696 102.974 108.094C102.974 107.493 103.099 106.897 103.341 106.342C103.583 105.786 103.938 105.281 104.385 104.856L110.263 99.2678C111.18 98.435 112.4 97.9703 113.668 97.9703C114.936 97.9703 116.155 98.435 117.072 99.2678L122.402 104.334C122.82 104.733 123.387 104.957 123.979 104.957C124.571 104.958 125.139 104.735 125.558 104.337C125.977 103.94 126.213 103.4 126.213 102.837C126.214 102.275 125.979 101.734 125.561 101.336L120.23 96.2695C119.076 95.1675 117.634 94.377 116.053 93.9789C114.472 93.5808 112.808 93.5894 111.231 94.0039L98.9272 82.3026C104.312 75.031 107.502 66.4964 108.15 57.6239C108.798 48.7514 106.88 39.8795 102.603 31.9699C98.3264 24.0602 91.8547 17.4146 83.8893 12.7532C75.9239 8.09185 66.7687 5.59264 57.4161 5.52648C48.0635 5.46032 38.8702 7.82972 30.8328 12.3779C22.7953 16.926 16.2203 23.4794 11.8205 31.3277C7.42064 39.1759 5.36377 48.0197 5.87284 56.9004C6.38191 65.781 9.43749 74.3598 14.7084 81.7068C14.8689 81.9464 15.0784 82.1528 15.3245 82.3138C15.5705 82.4749 15.8482 82.5872 16.1408 82.6442C16.4334 82.7012 16.7351 82.7016 17.028 82.6455C17.3208 82.5894 17.5988 82.4779 17.8454 82.3176C18.092 82.1573 18.3022 81.9515 18.4635 81.7125C18.6248 81.4734 18.7339 81.2059 18.7844 80.9259C18.8348 80.646 18.8255 80.3592 18.7571 80.0827C18.6887 79.8062 18.5625 79.5456 18.3861 79.3164C11.5816 69.8546 8.87185 58.2638 10.8196 46.9517C12.7673 35.6396 19.2228 25.4758 28.8452 18.5716C38.4675 11.6673 50.5171 8.55327 62.4908 9.87635C74.4646 11.1994 85.4421 16.8579 93.1432 25.6764C100.844 34.4949 104.677 45.7955 103.845 57.2309C103.013 68.6662 97.5802 79.3573 88.6755 87.0833C79.7707 94.8093 68.0783 98.9763 56.027 98.7188C43.9758 98.4613 32.492 93.799 23.9612 85.7005C23.7556 85.4981 23.5096 85.3367 23.2377 85.2257C22.9658 85.1147 22.6734 85.0563 22.3775 85.0539C22.0816 85.0515 21.7881 85.1052 21.5143 85.2118C21.2404 85.3184 20.9916 85.4758 20.7824 85.6748C20.5732 85.8738 20.4078 86.1105 20.2958 86.3709C20.1838 86.6314 20.1275 86.9104 20.1301 87.1918C20.1327 87.4732 20.1943 87.7513 20.3111 88.0098C20.428 88.2683 20.5978 88.5021 20.8107 88.6975C29.3463 96.8149 40.622 101.806 52.6493 102.789C64.6765 103.773 76.6828 100.686 86.5506 94.0741L98.8558 105.774C98.4205 107.273 98.4117 108.855 98.8303 110.358C99.2489 111.861 100.08 113.231 101.238 114.328L135.494 146.902C137.235 148.554 139.593 149.482 142.052 149.482C144.511 149.482 146.87 148.554 148.61 146.902L154.489 141.313C156.223 139.657 157.196 137.414 157.195 135.077C157.194 132.74 156.218 130.498 154.482 128.844ZM90.1022 91.4548C91.1898 90.5781 92.2531 89.6651 93.2731 88.6951C94.2931 87.7252 95.2533 86.714 96.1753 85.6799L107.224 96.1811C107.19 96.2126 107.155 96.2393 107.122 96.2695L101.238 101.858C101.207 101.889 101.179 101.925 101.145 101.956L90.1022 91.4548Z" fill="#142850"/>
<path d="M134.251 115.596C134.457 115.799 134.703 115.96 134.974 116.071C135.246 116.182 135.539 116.241 135.835 116.243C136.131 116.246 136.424 116.192 136.698 116.086C136.972 115.979 137.221 115.822 137.43 115.623C137.639 115.424 137.805 115.187 137.917 114.927C138.029 114.667 138.085 114.388 138.083 114.106C138.08 113.825 138.019 113.547 137.902 113.288C137.785 113.03 137.616 112.796 137.403 112.6L133.352 108.748C133.147 108.546 132.901 108.384 132.629 108.273C132.357 108.162 132.064 108.104 131.768 108.102C131.473 108.099 131.179 108.153 130.905 108.26C130.631 108.366 130.383 108.524 130.173 108.723C129.964 108.922 129.799 109.158 129.687 109.419C129.575 109.679 129.518 109.958 129.521 110.24C129.524 110.521 129.585 110.799 129.702 111.058C129.819 111.316 129.989 111.55 130.202 111.745L134.251 115.596Z" fill="#142850"/>
</svg>
